<svg
   viewBox="-0.100011 -0.0998434 36.54 46.608952"
   version="1.1"
   id="svg4"
   width="36.540001"
   height="46.608959"
   xmlns="http://www.w3.org/2000/svg"
   xmlns:svg="http://www.w3.org/2000/svg">
  <defs
     id="defs8" />
  <path
     d="m 24.27499521.048247 a 7.757.75 0 0 1 1.6954.848 7.8047.804 0 0 1 -1.7434.905 l -0.0940.116 -0.024-0.147 a 7.1387.138 0 0 0 -0.075-0.377 c -0.545-2.395 -2.322-4.45 -5.245-6.112 -1.974-1.12 -3.104-2.469 -3.4-4.001 -0.193-0.99 -0.05-1.986 0.225-2.839 0.276-0.852 0.685-1.566 1.033-1.995 l 1.137-1.392 a 0.50.5 0 0 1 0.7720 l 5.726.993 z m 1.8-1.39 -7.624-9.32 a 0.3640.364 0 0 0 -0.5640 l -7.6229.32 -0.0250.031 a 10.10210.102 0 0 0 -2.24099966.36 c 05.61 4.553999610.155 10.169999610.155 5.6180 10.172-4.546 10.172-10.154 0-2.408 -0.84-4.62 -2.242-6.36 l -0.025-0.032 z m -13.9861.36 0.682-0.835 0.020.155 c 0.0160.121 0.0360.244 0.060.367 0.442.315 2.0174.245 4.6515.74 2.291.303 3.6242.801 4.0084.445 0.160.686 0.1891.361 0.121.951 l -0.0040.037 -0.0340.016 a 7.7787.778 0 0 1 -3.4230.789 c -4.3080 -7.8-3.487 -7.8-7.787 0-1.847 0.644-3.543 1.72-4.878 z"
     stroke="#c0e6ff"
     stroke-width="0.1"
     fill="#c0e6ff"
     id="path2" />
</svg>
