<svg width="261" height="261" viewBox="0 0 261 261" fill="none" xmlns="http://www.w3.org/2000/svg">
<path d="M88.4064 25.4616C71.6803 34.3476 83.1496 -9.27482 35.8386 42.9105C-6.53414 89.9259 -9.08288 153.905 16.4045 198.174C48.7416 254.076 111.664 267.647 155.152 258.276C186.851 251.329 204.055 239.696 212.498 233.395C228.587 221.278 204.693 219.662 212.498 206.576C219.348 195.104 243.242 184.764 247.225 168.285C251.366 151.805 222.375 147.604 225.242 132.417C227.791 118.684 265.225 98.8119 260.606 82.1708C255.986 65.5296 219.348 86.0483 211.383 75.8697C203.578 65.8527 247.225 20.4531 234.003 8.98196C217.436 -5.07416 168.692 38.2252 156.267 35.8017C143.841 33.3782 152.762 1.71155 134.921 0.0959047C117.08 -1.51974 102.902 17.7065 88.4064 25.4616Z" fill="#893BFF"/>
<path d="M158.827 69.498C158.827 74.167 155.187 77.968 150.672 77.968C148.53 77.968 146.472 77.072 144.96 75.483C143.436 73.8575 142.59 71.7119 142.594 69.484C142.594 67.244 143.448 65.088 144.974 63.485C146.493 61.896 148.558 61 150.707 61C152.856 61 154.921 61.896 156.447 63.485C157.966 65.081 158.827 67.244 158.827 69.498ZM152.961 98.9679C152.05 98.9659 151.149 98.7787 150.313 98.4177C149.476 98.0567 148.722 97.5294 148.096 96.8679C146.792 95.5166 146.072 93.7058 146.094 91.8279C146.081 90.4119 146.469 89.0212 147.214 87.8169C147.951 86.637 149.024 85.7036 150.294 85.1359C151.548 84.573 152.946 84.4168 154.294 84.6892C155.641 84.9617 156.869 85.6491 157.805 86.6549C158.775 87.6867 159.432 88.9721 159.701 90.3622C159.97 91.7523 159.839 93.1901 159.324 94.5089C158.822 95.8161 157.939 96.9427 156.79 97.7429C155.671 98.5365 154.333 98.9644 152.961 98.9679ZM150.805 116.692C150.041 116.685 149.287 116.521 148.589 116.212C147.891 115.903 147.263 115.454 146.745 114.893C145.668 113.731 145.068 112.207 145.065 110.623C145.065 109.034 145.667 107.501 146.745 106.36C147.264 105.796 147.893 105.344 148.594 105.033C149.294 104.723 150.051 104.559 150.818 104.552C151.584 104.546 152.344 104.696 153.05 104.995C153.756 105.294 154.393 105.735 154.921 106.29C155.472 106.855 155.897 107.508 156.195 108.25C156.646 109.363 156.77 110.581 156.552 111.762C156.333 112.942 155.782 114.036 154.963 114.914C154.424 115.473 153.778 115.919 153.064 116.224C152.35 116.529 151.582 116.689 150.805 116.692ZM150.483 125.82C150.49 127.185 149.971 128.501 149.034 129.495C148.58 129.971 148.035 130.351 147.431 130.612C146.828 130.873 146.178 131.009 145.52 131.014C144.863 131.01 144.213 130.875 143.609 130.615C143.006 130.355 142.46 129.977 142.006 129.502C141.065 128.508 140.543 127.189 140.55 125.82C140.55 124.448 141.075 123.125 142.006 122.145C142.46 121.669 143.005 121.289 143.608 121.028C144.212 120.767 144.862 120.63 145.52 120.626C146.179 120.622 146.831 120.755 147.436 121.017C148.041 121.278 148.585 121.662 149.034 122.145C149.971 123.138 150.49 124.454 150.483 125.82ZM142.657 137.286C142.664 138.456 142.221 139.584 141.418 140.436C141.029 140.848 140.56 141.177 140.04 141.403C139.521 141.629 138.96 141.748 138.394 141.752C137.545 141.748 136.718 141.486 136.021 141.003C135.49 140.624 135.049 140.134 134.727 139.567C134.405 139 134.211 138.37 134.159 137.72C134.1 137.069 134.179 136.414 134.389 135.796C134.598 135.177 134.935 134.61 135.377 134.129C135.812 133.66 136.351 133.298 136.95 133.072C137.549 132.847 138.192 132.764 138.829 132.83C139.466 132.896 140.079 133.109 140.619 133.452C141.159 133.795 141.613 134.259 141.943 134.808C142.411 135.549 142.659 136.409 142.657 137.286ZM134.061 145.483C134.067 146.492 133.683 147.465 132.99 148.199C132.654 148.548 132.252 148.828 131.807 149.02C131.363 149.212 130.884 149.314 130.4 149.319C129.915 149.321 129.435 149.223 128.99 149.03C128.546 148.837 128.146 148.554 127.816 148.199C127.389 147.748 127.074 147.201 126.899 146.605C126.724 146.009 126.694 145.379 126.81 144.768C126.926 144.158 127.186 143.584 127.568 143.093C127.95 142.603 128.443 142.21 129.006 141.948C129.676 141.662 130.418 141.588 131.131 141.736C131.844 141.883 132.495 142.246 132.997 142.774C133.686 143.507 134.067 144.477 134.061 145.483ZM177.798 96.0909C177.378 97.9459 176.265 99.5629 174.704 100.571C173.939 101.063 173.083 101.395 172.187 101.547C171.29 101.698 170.372 101.666 169.489 101.453C168.597 101.221 167.761 100.815 167.027 100.259C166.293 99.7024 165.676 99.0069 165.211 98.2119C164.244 96.5664 163.941 94.6134 164.364 92.7519C164.784 90.8899 165.904 89.2799 167.458 88.2719C168.223 87.7798 169.079 87.4479 169.976 87.2963C170.872 87.1447 171.79 87.1766 172.674 87.3899C174.452 87.8379 175.992 88.9999 176.951 90.6309C177.917 92.2619 178.225 94.2219 177.798 96.0909ZM174.48 114.753C174.009 116.157 173.044 117.341 171.764 118.085C170.51 118.809 169.025 119.02 167.619 118.673C166.199 118.309 164.966 117.428 164.161 116.202C163.327 114.952 162.967 113.445 163.146 111.953C163.617 110.549 164.582 109.365 165.862 108.621C167.119 107.897 168.607 107.689 170.014 108.04C171.414 108.39 172.646 109.265 173.465 110.504C174.298 111.743 174.655 113.255 174.48 114.753ZM168.369 129.684C167.979 130.889 167.156 131.907 166.058 132.54C164.988 133.155 163.721 133.331 162.523 133.03C161.31 132.728 160.259 131.974 159.583 130.923C158.883 129.847 158.59 128.556 158.757 127.283C159.191 126.144 160.018 125.199 161.088 124.616C162.138 124.042 163.365 123.885 164.525 124.175C165.698 124.47 166.72 125.188 167.395 126.191C168.088 127.22 168.409 128.455 168.306 129.691L168.369 129.684ZM160.472 141.01C160.227 142.143 159.552 143.136 158.589 143.782C158.119 144.094 157.589 144.305 157.033 144.403C156.477 144.501 155.907 144.483 155.358 144.35C154.81 144.217 154.294 143.973 153.844 143.631C153.395 143.29 153.02 142.86 152.744 142.368C152.149 141.365 151.955 140.174 152.202 139.034C152.449 137.894 153.118 136.889 154.074 136.222C154.544 135.914 155.073 135.707 155.628 135.614C156.182 135.522 156.749 135.545 157.294 135.683C157.847 135.813 158.368 136.053 158.825 136.39C159.282 136.727 159.666 137.153 159.954 137.643C160.566 138.652 160.755 139.862 160.479 141.01M151.827 148.948C151.521 149.795 150.923 150.505 150.14 150.95C149.364 151.387 148.45 151.511 147.585 151.298C146.72 151.085 145.969 150.55 145.485 149.802C144.969 149.042 144.736 148.126 144.827 147.212C145.133 146.361 145.734 145.648 146.521 145.203C147.297 144.761 148.213 144.635 149.079 144.85C149.946 145.065 150.697 145.605 151.176 146.358C151.69 147.118 151.92 148.035 151.827 148.948ZM143.168 153.946C142.927 154.702 142.416 155.342 141.733 155.745C141.059 156.143 140.258 156.263 139.497 156.08C138.737 155.897 138.077 155.425 137.659 154.765C137.212 154.091 137.023 153.278 137.127 152.476C137.366 151.717 137.877 151.074 138.562 150.67C139.235 150.275 140.036 150.157 140.795 150.341C141.558 150.532 142.219 151.008 142.643 151.671C143.084 152.342 143.27 153.149 143.168 153.946ZM188.354 121.55C187.705 122.983 186.514 124.1 185.043 124.658C184.319 124.927 183.548 125.044 182.777 125C182.006 124.957 181.252 124.754 180.563 124.406C179.858 124.055 179.233 123.564 178.724 122.963C178.215 122.363 177.833 121.665 177.602 120.913C177.08 119.375 177.173 117.694 177.861 116.223C178.189 115.51 178.654 114.869 179.231 114.337C179.808 113.805 180.484 113.392 181.221 113.122C181.945 112.861 182.716 112.753 183.485 112.803C184.253 112.854 185.003 113.062 185.687 113.416C188.613 114.886 189.817 118.554 188.417 121.55H188.354ZM182.313 136.348C181.689 137.472 180.664 138.319 179.443 138.721C178.238 139.098 176.934 138.995 175.803 138.434C174.653 137.846 173.764 136.85 173.311 135.641C172.851 134.41 172.839 133.058 173.276 131.819C173.552 131.206 173.946 130.654 174.437 130.194C174.927 129.734 175.503 129.375 176.132 129.138C176.75 128.915 177.407 128.818 178.064 128.854C178.721 128.89 179.363 129.058 179.954 129.348C180.569 129.638 181.117 130.053 181.563 130.566C182.009 131.08 182.343 131.68 182.544 132.33C182.989 133.649 182.906 135.089 182.313 136.348ZM174.613 147.548C174.119 148.593 173.234 149.403 172.149 149.802C171.62 149.99 171.059 150.07 170.498 150.038C169.938 150.005 169.39 149.861 168.887 149.613C168.36 149.364 167.89 149.009 167.508 148.569C167.126 148.129 166.84 147.614 166.667 147.058C166.289 145.928 166.354 144.697 166.849 143.614C167.385 142.647 168.268 141.921 169.321 141.584C170.36 141.261 171.484 141.353 172.457 141.843C173.446 142.354 174.21 143.215 174.599 144.258C174.994 145.318 174.999 146.484 174.613 147.548ZM166.023 155.479C165.594 156.385 164.828 157.089 163.888 157.439C163.43 157.602 162.944 157.672 162.458 157.645C161.972 157.617 161.497 157.492 161.06 157.278C160.565 157.083 160.117 156.784 159.748 156.401C159.378 156.019 159.095 155.561 158.918 155.059C158.64 154.299 158.591 153.473 158.777 152.686C158.964 151.898 159.378 151.182 159.968 150.628C160.355 150.28 160.81 150.018 161.304 149.857C161.799 149.697 162.321 149.642 162.838 149.697C163.361 149.767 163.851 149.939 164.308 150.215C164.758 150.445 165.157 150.763 165.482 151.15C165.806 151.538 166.05 151.986 166.198 152.469C166.515 153.459 166.452 154.532 166.023 155.479ZM157.427 160.344C157.064 161.122 156.411 161.728 155.607 162.031C155.21 162.174 154.788 162.235 154.366 162.208C153.945 162.182 153.533 162.069 153.157 161.877C152.389 161.475 151.81 160.785 151.547 159.959C151.349 159.336 151.329 158.67 151.49 158.037C151.651 157.403 151.986 156.828 152.457 156.375C152.767 156.09 153.132 155.87 153.528 155.728C153.925 155.586 154.346 155.525 154.767 155.549C155.187 155.577 155.584 155.686 155.957 155.878C156.731 156.277 157.315 156.967 157.581 157.796C157.861 158.636 157.798 159.546 157.427 160.344ZM149.342 162.808C149.083 163.404 148.626 163.891 148.047 164.187C147.473 164.476 146.811 164.54 146.192 164.369C145.57 164.193 145.029 163.807 144.659 163.277C144.285 162.732 144.117 162.072 144.183 161.415C144.206 160.859 144.393 160.323 144.722 159.875C145.082 159.352 145.619 158.977 146.234 158.818C146.849 158.66 147.5 158.73 148.068 159.014C148.734 159.342 149.243 159.921 149.482 160.624C149.718 161.343 149.668 162.125 149.342 162.808ZM155.901 195.134C154.022 193.988 152.667 192.151 152.128 190.017C151.552 187.862 151.828 185.569 152.898 183.612C153.435 182.646 154.13 181.817 154.984 181.127C156.234 180.103 157.77 179.49 159.381 179.372C160.992 179.255 162.601 179.637 163.986 180.469C165.855 181.61 167.213 183.465 167.773 185.635C168.334 187.805 168.053 190.115 166.975 192.068C165.883 194 164.105 195.407 162.04 195.988C161.013 196.27 159.938 196.34 158.883 196.193C157.827 196.046 156.813 195.686 155.901 195.134ZM136.868 184.935C136.07 184.461 135.375 183.833 134.822 183.088C134.269 182.343 133.87 181.495 133.648 180.595C133.166 178.755 133.409 176.8 134.327 175.135C134.766 174.324 135.361 173.607 136.079 173.027C136.796 172.447 137.621 172.014 138.506 171.754C139.381 171.505 140.298 171.441 141.199 171.565C142.101 171.69 142.966 171.999 143.742 172.475C145.324 173.455 146.472 175.03 146.955 176.871C147.431 178.719 147.193 180.679 146.29 182.338C145.833 183.164 145.245 183.871 144.526 184.459C143.466 185.339 142.157 185.864 140.784 185.961C139.41 186.057 138.04 185.721 136.868 184.998V184.935ZM122.867 172.678C121.509 171.865 120.526 170.549 120.13 169.017C119.73 167.467 119.935 165.822 120.704 164.418C121.463 163.039 122.736 162.018 124.246 161.576C124.985 161.373 125.758 161.325 126.517 161.433C127.275 161.542 128.004 161.805 128.656 162.206C130.015 163.019 130.998 164.334 131.394 165.867C131.796 167.413 131.596 169.054 130.834 170.459C130.076 171.84 128.803 172.864 127.291 173.308C126.55 173.512 125.775 173.562 125.014 173.453C124.253 173.345 123.522 173.081 122.867 172.678ZM113.326 159.539C112.727 159.206 112.201 158.754 111.783 158.211C111.364 157.669 111.06 157.046 110.89 156.382C110.619 155.38 110.644 154.321 110.961 153.333C111.277 152.344 111.873 151.468 112.675 150.81C113.202 150.397 113.808 150.096 114.456 149.926C115.104 149.756 115.779 149.721 116.441 149.823C117.099 149.93 117.715 150.17 118.289 150.544C120.641 152.014 121.467 155.213 120.067 157.614C119.757 158.197 119.333 158.712 118.819 159.127C118.306 159.542 117.713 159.848 117.078 160.029C116.452 160.208 115.797 160.257 115.151 160.173C114.506 160.088 113.885 159.873 113.326 159.539ZM107.726 146.68C106.753 146.081 106.05 145.127 105.766 144.02C105.471 142.9 105.6 141.711 106.13 140.681C106.395 140.179 106.76 139.735 107.201 139.378C107.643 139.021 108.152 138.757 108.699 138.602C109.236 138.447 109.799 138.404 110.353 138.476C110.907 138.548 111.44 138.734 111.919 139.022C112.654 139.442 113.249 140.093 113.627 140.87C114.002 141.651 114.146 142.524 114.042 143.385C113.938 144.245 113.59 145.058 113.039 145.728C112.587 146.267 112.008 146.686 111.355 146.947C110.701 147.208 109.993 147.304 109.294 147.226C108.74 147.15 108.207 146.964 107.726 146.68ZM105.178 134.815C104.346 134.28 103.752 133.445 103.519 132.484C103.278 131.512 103.418 130.485 103.911 129.614C104.148 129.196 104.466 128.83 104.845 128.535C105.225 128.241 105.659 128.025 106.123 127.899C106.583 127.772 107.065 127.741 107.538 127.807C108.011 127.873 108.466 128.035 108.874 128.284C109.347 128.506 109.767 128.827 110.106 129.225C110.444 129.624 110.692 130.091 110.834 130.594C111.058 131.353 111.051 132.162 110.815 132.917C110.578 133.673 110.121 134.34 109.504 134.836C108.89 135.302 108.14 135.553 107.369 135.549C106.598 135.545 105.85 135.287 105.241 134.815H105.178ZM129.104 201C128.188 201.008 127.28 200.828 126.436 200.469C125.593 200.11 124.833 199.58 124.204 198.914C122.874 197.548 122.139 195.71 122.16 193.804C122.16 192.376 122.566 190.99 123.315 189.814C124.056 188.642 125.128 187.716 126.395 187.154C127.643 186.606 129.03 186.459 130.365 186.734C131.709 187.013 132.935 187.697 133.879 188.694C134.844 189.721 135.5 190.999 135.771 192.382C136.042 193.766 135.918 195.197 135.412 196.513C134.916 197.82 134.041 198.948 132.899 199.754C131.791 200.548 130.467 200.983 129.104 201ZM110.519 186.734C109.371 185.617 108.71 184.093 108.678 182.492C108.633 180.892 109.199 179.335 110.26 178.138C110.778 177.562 111.406 177.096 112.107 176.767C112.808 176.437 113.567 176.251 114.341 176.22C115.117 176.189 115.892 176.319 116.615 176.604C117.338 176.888 117.994 177.32 118.541 177.872C119.658 179.026 120.296 180.56 120.33 182.166C120.364 183.771 119.79 185.33 118.723 186.531C118.201 187.103 117.57 187.565 116.867 187.889C116.163 188.214 115.402 188.395 114.628 188.421C113.853 188.444 113.081 188.307 112.361 188.016C111.642 187.726 110.991 187.289 110.449 186.734H110.519ZM101.16 173.805C100.671 173.335 100.28 172.772 100.011 172.149C99.7419 171.527 99.5993 170.857 99.5917 170.179C99.5589 168.813 100.053 167.487 100.971 166.476C101.41 165.99 101.943 165.597 102.537 165.32C103.131 165.044 103.774 164.889 104.429 164.866C105.083 164.852 105.734 164.969 106.342 165.211C106.951 165.452 107.504 165.814 107.971 166.273C108.916 167.234 109.461 168.518 109.496 169.865C109.532 171.212 109.054 172.523 108.16 173.532C107.72 174.018 107.188 174.411 106.594 174.687C106 174.964 105.357 175.118 104.702 175.142C104.047 175.165 103.394 175.052 102.785 174.811C102.175 174.571 101.622 174.206 101.16 173.742V173.805ZM95.6856 160.939C95.1816 160.435 94.8042 159.82 94.5841 159.142C94.3641 158.464 94.3078 157.744 94.4198 157.041C94.5319 156.337 94.809 155.67 95.2286 155.095C95.6482 154.519 96.1982 154.051 96.8336 153.729C97.3404 153.495 97.8887 153.365 98.4464 153.346C99.0041 153.327 99.56 153.419 100.082 153.617C100.869 153.952 101.545 154.506 102.027 155.213C102.51 155.92 102.78 156.751 102.805 157.607C102.844 158.759 102.438 159.882 101.671 160.743C101.298 161.163 100.844 161.504 100.336 161.746C99.8289 161.987 99.2782 162.125 98.7167 162.15C98.1546 162.173 97.594 162.077 97.0716 161.868C96.5493 161.66 96.0769 161.343 95.6856 160.939ZM93.5225 149.214C92.8156 148.517 92.4022 147.576 92.367 146.584C92.3319 145.593 92.6777 144.625 93.3335 143.88C93.65 143.524 94.0351 143.235 94.4658 143.032C94.8965 142.829 95.3639 142.714 95.8398 142.696C96.3158 142.678 96.7906 142.756 97.2356 142.925C97.6807 143.095 98.0868 143.353 98.4297 143.684C98.7923 144.019 99.0843 144.423 99.2887 144.873C99.493 145.322 99.6056 145.808 99.6197 146.302C99.6577 147.302 99.2978 148.276 98.6187 149.011C98.3021 149.366 97.9173 149.654 97.4872 149.858C97.0572 150.061 96.5905 150.176 96.1151 150.196C95.6397 150.215 95.1652 150.139 94.7198 149.972C94.2744 149.804 93.8673 149.542 93.5225 149.214ZM93.6485 138.889C93.1813 138.447 92.8569 137.876 92.7172 137.248C92.5775 136.621 92.6288 135.966 92.8645 135.368C93.0821 134.782 93.4653 134.273 93.9674 133.901C94.4696 133.529 95.069 133.312 95.6926 133.275C96.1037 133.266 96.5125 133.339 96.8948 133.491C97.2772 133.642 97.6253 133.869 97.9187 134.157C98.4409 134.777 98.7214 135.565 98.7085 136.375C98.6957 137.185 98.3903 137.964 97.8486 138.567C97.3231 139.148 96.5944 139.506 95.8128 139.566C95.0313 139.626 94.2566 139.383 93.6485 138.889ZM97.9817 195.939C97.106 194.589 96.7765 192.958 97.0599 191.374C97.3433 189.791 98.2184 188.375 99.5077 187.413C100.183 186.933 100.955 186.607 101.769 186.457C102.583 186.307 103.42 186.336 104.222 186.542C105.024 186.749 105.771 187.128 106.411 187.653C107.052 188.178 107.569 188.837 107.929 189.583C108.607 190.911 108.798 192.435 108.468 193.889C108.138 195.344 107.308 196.636 106.123 197.542C105.491 197.987 104.777 198.3 104.021 198.463C103.266 198.625 102.485 198.633 101.727 198.487C100.962 198.338 100.236 198.036 99.5922 197.598C98.9484 197.16 98.4004 196.595 97.9817 195.939ZM88.7484 183.08C87.9606 181.925 87.6589 180.507 87.9084 179.132C88.0836 178.115 88.5506 177.172 89.2524 176.416C89.9524 175.674 90.8485 175.156 91.8355 174.946C92.484 174.799 93.1561 174.79 93.8084 174.919C94.4606 175.048 95.0787 175.312 95.6226 175.695C96.1846 176.076 96.6614 176.569 97.0226 177.144C97.6059 178.006 97.9268 179.019 97.9467 180.06C97.9666 181.101 97.6845 182.126 97.1346 183.01C96.6034 183.877 95.8156 184.557 94.8806 184.956C93.7967 185.433 92.5759 185.499 91.4469 185.141C90.318 184.783 89.3585 184.025 88.7484 183.01V183.08ZM83.2743 170.48C82.6252 169.488 82.3824 168.284 82.5961 167.118C82.8098 165.952 83.4636 164.912 84.4223 164.215C84.8859 163.885 85.4116 163.653 85.9675 163.533C86.5234 163.413 87.098 163.406 87.6564 163.515C88.2191 163.627 88.7529 163.853 89.2248 164.179C89.6968 164.505 90.0969 164.925 90.4005 165.412C90.8985 166.151 91.1686 167.019 91.1773 167.91C91.186 168.801 90.9329 169.675 90.4495 170.424C89.8265 171.407 88.8401 172.104 87.7054 172.363C87.1492 172.479 86.5752 172.481 86.0181 172.37C85.461 172.258 84.9324 172.034 84.4643 171.712C83.9865 171.385 83.5813 170.97 83.2743 170.48ZM80.9852 158.811C80.4662 157.998 80.2537 157.026 80.3859 156.071C80.518 155.115 80.9861 154.238 81.7062 153.596C82.1916 153.176 82.7422 152.893 83.3583 152.749C83.8428 152.64 84.3449 152.636 84.8313 152.736C85.3177 152.836 85.7772 153.038 86.1793 153.33C87.0194 153.904 87.5934 154.8 87.7894 155.808C87.9823 156.818 87.7846 157.864 87.2364 158.734C86.9719 159.161 86.6186 159.526 86.2003 159.805C85.596 160.243 84.8716 160.484 84.1253 160.497C83.379 160.509 82.6469 160.292 82.0282 159.875C81.6057 159.6 81.2475 159.237 80.9782 158.811M81.2302 148.542C80.9375 148.084 80.7579 147.563 80.706 147.022C80.6541 146.481 80.7315 145.936 80.9318 145.43C81.1321 144.925 81.4495 144.475 81.858 144.116C82.2665 143.758 82.7543 143.502 83.2813 143.369C83.6984 143.282 84.129 143.282 84.5459 143.37C84.9628 143.458 85.3569 143.632 85.7033 143.88C86.1213 144.186 86.4651 144.582 86.7096 145.038C86.954 145.495 87.0928 146 87.1156 146.518C87.1385 147.035 87.0448 147.551 86.8416 148.027C86.6383 148.504 86.3307 148.928 85.9413 149.27C85.5023 149.661 84.9605 149.918 84.38 150.011C83.7995 150.104 83.2045 150.029 82.6652 149.795C82.0715 149.531 81.5712 149.095 81.2302 148.542ZM83.2673 140.016C82.9872 139.712 82.7759 139.352 82.6478 138.959C82.5198 138.567 82.478 138.151 82.5252 137.741C82.5658 137.333 82.6914 136.937 82.894 136.58C83.0965 136.224 83.3715 135.913 83.7013 135.669C84.0276 135.432 84.4035 135.273 84.8005 135.202C85.1976 135.132 85.6053 135.153 85.9931 135.264C86.3808 135.374 86.7383 135.572 87.0386 135.841C87.3389 136.11 87.5741 136.444 87.7264 136.817C87.9911 137.432 88.0432 138.117 87.8746 138.765C87.706 139.413 87.3262 139.986 86.7954 140.394C86.2638 140.776 85.61 140.949 84.9591 140.879C84.3081 140.809 83.7058 140.502 83.2673 140.016ZM53.0545 129.684C54.435 128.848 56.0396 128.459 57.6495 128.569C59.2594 128.68 60.796 129.284 62.0497 130.3C62.9084 130.981 63.6084 131.81 64.1498 132.785C65.2334 134.739 65.5145 137.039 64.9338 139.197C64.3738 141.367 63.0087 143.215 61.1397 144.349C60.2205 144.898 59.1994 145.256 58.1381 145.399C57.0768 145.542 55.9974 145.468 54.9655 145.182C53.9257 144.896 52.9574 144.395 52.1234 143.712C51.2819 143.02 50.5829 142.171 50.0654 141.213C49.0026 139.252 48.7224 136.96 49.2814 134.801C49.8414 132.638 51.1994 130.797 53.0545 129.684ZM71.0659 117.693C71.8342 117.225 72.6903 116.92 73.5813 116.796C74.4723 116.672 75.3792 116.732 76.2461 116.972C77.9961 117.462 79.5012 118.652 80.4182 120.297C81.3352 121.942 81.5732 123.902 81.0972 125.729C80.632 127.546 79.4769 129.11 77.8771 130.09C76.5026 130.911 74.8777 131.209 73.3011 130.929C71.7245 130.649 70.302 129.809 69.2949 128.564C68.2636 127.294 67.6811 125.718 67.638 124.082C67.595 122.447 68.0938 120.843 69.0569 119.52C69.6009 118.786 70.2834 118.165 71.0659 117.693ZM88.2514 111.162C88.9024 110.775 89.6251 110.524 90.3759 110.424C91.1267 110.324 91.89 110.377 92.6195 110.581C94.1176 111.001 95.3916 112.016 96.1686 113.402C96.9393 114.794 97.1483 116.428 96.7526 117.969C96.3569 119.51 95.3865 120.841 94.0406 121.69C93.3828 122.086 92.6507 122.342 91.8896 122.444C91.1285 122.545 90.3548 122.488 89.6164 122.278C88.8678 122.061 88.1697 121.697 87.5628 121.208C86.9559 120.719 86.4523 120.114 86.0813 119.429C85.3124 118.037 85.1089 116.402 85.513 114.865C85.917 113.327 86.8976 111.996 88.2514 111.162ZM103.967 109.167C104.525 108.838 105.142 108.623 105.784 108.534C106.426 108.445 107.079 108.484 107.705 108.649C108.965 108.999 110.05 109.853 110.715 111.029C111.192 111.926 111.41 112.939 111.343 113.953C111.276 114.967 110.928 115.942 110.337 116.769C109.948 117.3 109.457 117.747 108.891 118.084C108.326 118.42 107.699 118.64 107.047 118.729C106.4 118.811 105.743 118.764 105.115 118.589C103.837 118.209 102.763 117.338 102.126 116.167C101.476 114.963 101.308 113.556 101.657 112.233C101.991 110.929 102.82 109.807 103.967 109.104V109.167ZM117.337 110.497C117.821 110.195 118.362 109.997 118.925 109.915C119.489 109.832 120.064 109.867 120.614 110.018C121.164 110.168 121.676 110.431 122.119 110.789C122.563 111.148 122.927 111.594 123.189 112.1C123.718 113.133 123.845 114.325 123.546 115.446C123.261 116.554 122.555 117.508 121.579 118.106C121.104 118.389 120.577 118.576 120.029 118.655C119.482 118.735 118.923 118.705 118.387 118.568C117.846 118.423 117.339 118.171 116.897 117.827C116.454 117.483 116.085 117.055 115.811 116.566C115.261 115.531 115.119 114.327 115.412 113.192C115.703 112.073 116.415 111.11 117.4 110.504L117.337 110.497ZM128.467 114.172C128.879 113.925 129.337 113.765 129.812 113.703C130.288 113.64 130.771 113.676 131.233 113.808C131.698 113.939 132.133 114.163 132.512 114.464C132.891 114.766 133.205 115.14 133.438 115.565C133.918 116.44 134.053 117.465 133.816 118.435C133.584 119.395 132.993 120.23 132.164 120.766C131.75 121.022 131.289 121.191 130.808 121.261C130.326 121.331 129.836 121.301 129.367 121.173C128.898 121.045 128.46 120.822 128.081 120.517C127.703 120.212 127.391 119.832 127.165 119.401C126.679 118.519 126.544 117.487 126.787 116.51C127.024 115.543 127.626 114.705 128.467 114.172ZM65.5148 99.2899C66.3792 99.0115 67.292 98.915 68.1955 99.0066C69.0991 99.0981 69.9739 99.3757 70.7649 99.8219C71.577 100.275 72.2723 100.87 72.851 101.607C73.4297 102.349 73.8497 103.175 74.111 104.085C74.643 105.919 74.461 107.893 73.6 109.58C73.1707 110.42 72.606 111.143 71.906 111.75C70.8735 112.652 69.5876 113.212 68.2243 113.355C66.8609 113.498 65.4867 113.216 64.2898 112.548C62.6548 111.623 61.4501 110.092 60.9367 108.285C59.8586 104.421 61.8887 100.424 65.5148 99.2899ZM82.7002 92.9619C84.1207 92.6847 85.5933 92.9682 86.8094 93.7529C88.0487 94.5613 88.9557 95.7888 89.3644 97.2109C89.7917 98.6552 89.6874 100.205 89.0704 101.579C88.4775 102.926 87.4117 104.009 86.0743 104.624C84.9721 104.974 83.7885 104.974 82.6862 104.624C81.5696 104.275 80.5904 103.584 79.8862 102.65C79.4027 102.023 79.0417 101.311 78.8221 100.55C78.6028 99.7799 78.5305 98.9936 78.6051 98.1909C78.7603 96.605 79.5107 95.1367 80.7052 94.0819C81.286 93.5753 81.9652 93.194 82.7002 92.9619ZM98.1007 91.0299C98.7182 90.8299 99.3705 90.7602 100.016 90.8252C100.662 90.8903 101.288 91.0887 101.853 91.4079C103.021 92.0711 103.881 93.1675 104.247 94.4599C104.624 95.7688 104.491 97.1718 103.876 98.3869C103.434 99.274 102.733 100.006 101.867 100.487C100.865 101.054 99.6918 101.238 98.5644 101.007C97.437 100.775 96.4317 100.143 95.7346 99.2269C94.9019 98.1574 94.5088 96.8104 94.6356 95.4609C94.7568 94.1132 95.3938 92.8644 96.4136 91.9749C96.9076 91.551 97.4811 91.2298 98.1007 91.0299ZM111.471 92.4929C112.001 92.3219 112.56 92.2616 113.114 92.3158C113.668 92.37 114.205 92.5375 114.691 92.8079C115.696 93.3767 116.437 94.3166 116.756 95.4259C117.084 96.549 116.974 97.7548 116.448 98.7999C116.073 99.5677 115.472 100.203 114.726 100.62C114.116 100.964 113.428 101.147 112.728 101.152C112.027 101.157 111.337 100.983 110.722 100.648C109.726 100.069 108.992 99.129 108.671 98.0229C108.429 97.1896 108.427 96.3052 108.665 95.4708C108.903 94.6364 109.371 93.8858 110.015 93.3049C110.441 92.9397 110.936 92.6636 111.471 92.4929ZM122.356 96.3569C122.804 96.2387 123.271 96.2105 123.731 96.2742C124.19 96.3379 124.631 96.4921 125.03 96.7279C125.856 97.2227 126.462 98.0138 126.724 98.9399C126.993 99.8777 126.908 100.881 126.486 101.761C126.171 102.412 125.672 102.957 125.051 103.329C124.532 103.634 123.944 103.804 123.342 103.821C122.74 103.838 122.143 103.702 121.607 103.427C120.712 102.93 120.05 102.098 119.766 101.115C119.481 100.131 119.597 99.0753 120.088 98.1769C120.327 97.7388 120.651 97.3525 121.04 97.0401C121.43 96.7277 121.877 96.4955 122.356 96.3569ZM130.82 101.691C131.425 101.41 132.107 101.34 132.757 101.492C133.406 101.644 133.986 102.01 134.404 102.531C134.698 102.877 134.918 103.28 135.051 103.715C135.184 104.15 135.227 104.607 135.176 105.059C135.126 105.511 134.983 105.947 134.758 106.342C134.532 106.737 134.228 107.081 133.865 107.354C133.507 107.618 133.096 107.802 132.661 107.893C132.054 108.169 131.374 108.237 130.725 108.085C130.077 107.933 129.497 107.57 129.076 107.053C128.781 106.705 128.561 106.299 128.431 105.862C128.301 105.424 128.263 104.965 128.32 104.512C128.372 104.062 128.514 103.628 128.738 103.235C128.962 102.841 129.262 102.497 129.622 102.223C129.972 101.954 130.38 101.772 130.813 101.691M81.4332 76.96C82.2118 76.8836 82.9979 76.9712 83.7406 77.2171C84.4833 77.4631 85.1662 77.8619 85.7453 78.388C86.351 78.9226 86.8443 79.5723 87.1964 80.2994C87.5485 81.0264 87.7525 81.8163 87.7964 82.623C87.9144 84.2456 87.4002 85.8509 86.3613 87.1029C85.8601 87.7035 85.2454 88.1994 84.5523 88.5621C83.8592 88.9249 83.1014 89.1474 82.3222 89.2169C81.5431 89.28 80.7595 89.1794 80.0216 88.9214C79.2838 88.6634 78.6081 88.2538 78.0381 87.7189C76.858 86.6141 76.142 85.1019 76.0355 83.4888C75.9289 81.8757 76.4396 80.2825 77.4641 79.032C77.965 78.4357 78.5794 77.9449 79.2716 77.588C79.9638 77.2311 80.7199 77.0152 81.4962 76.953L81.4332 76.96ZM96.7636 75.091C97.4212 75.0388 98.0825 75.1238 98.7056 75.3407C99.3286 75.5576 99.8997 75.9016 100.383 76.351C101.4 77.2692 102.011 78.5528 102.084 79.921C102.178 81.2882 101.747 82.6398 100.88 83.701C100.461 84.2139 99.9417 84.6366 99.3546 84.9434C98.7674 85.2502 98.1241 85.4348 97.4636 85.4859C96.8082 85.5232 96.1519 85.4284 95.5338 85.2072C94.9158 84.9859 94.3484 84.6427 93.8655 84.198C92.8666 83.2616 92.2636 81.9786 92.1803 80.612C92.097 79.2454 92.5397 77.8987 93.4175 76.848C93.8392 76.3401 94.3592 75.9227 94.9462 75.6208C95.5332 75.3188 96.1752 75.1386 96.8336 75.091H96.7636ZM109.945 76.421C111.016 76.449 112.045 76.89 112.829 77.667C113.617 78.4604 114.094 79.511 114.171 80.6267C114.248 81.7425 113.921 82.8486 113.249 83.743C112.611 84.6253 111.654 85.2252 110.582 85.4159C109.497 85.3912 108.463 84.9472 107.698 84.1769C106.91 83.3837 106.433 82.3337 106.355 81.2183C106.277 80.103 106.602 78.9966 107.271 78.101C107.91 77.2144 108.869 76.6118 109.945 76.421ZM120.76 80.215C121.693 80.2647 122.573 80.6647 123.224 81.335C123.967 82.1126 124.37 83.1528 124.347 84.2275C124.323 85.3022 123.874 86.3237 123.098 87.0679C122.462 87.6862 121.619 88.0469 120.732 88.0805C119.845 88.1141 118.978 87.8183 118.296 87.2499C117.871 86.9044 117.523 86.4736 117.275 85.9853C117.026 85.497 116.883 84.962 116.854 84.4149C116.797 83.3116 117.177 82.2302 117.911 81.405C118.276 81.0173 118.718 80.7109 119.209 80.5058C119.7 80.3007 120.228 80.2016 120.76 80.215Z" fill="white"/>
</svg>
